<svg width="164" height="50" viewBox="0 0 164 50" fill="none" xmlns="http://www.w3.org/2000/svg">
<path d="M40 0H10C4.47715 0 0 4.47715 0 10V40C0 45.5228 4.47715 50 10 50H40C45.5228 50 50 45.5228 50 40V10C50 4.47715 45.5228 0 40 0Z" fill="#FEE440"/>
<path d="M80.833 25.0469V35H79.5342V25.0469H80.833ZM84.0322 25.0469V26.127H76.3418V25.0469H84.0322ZM90.5425 28.7656V35H89.2779V27.6035H90.5083L90.5425 28.7656ZM92.853 27.5625L92.8462 28.7383C92.7414 28.7155 92.6411 28.7018 92.5454 28.6973C92.4543 28.6882 92.3495 28.6836 92.231 28.6836C91.9393 28.6836 91.6818 28.7292 91.4585 28.8203C91.2352 28.9115 91.0461 29.0391 90.8911 29.2031C90.7362 29.3672 90.6131 29.5632 90.522 29.791C90.4354 30.0143 90.3784 30.2604 90.3511 30.5293L89.9956 30.7344C89.9956 30.2878 90.0389 29.8685 90.1255 29.4766C90.2167 29.0846 90.3557 28.7383 90.5425 28.4375C90.7293 28.1322 90.9663 27.8952 91.2534 27.7266C91.5451 27.5534 91.8915 27.4668 92.2925 27.4668C92.3836 27.4668 92.4885 27.4782 92.607 27.501C92.7254 27.5192 92.8075 27.5397 92.853 27.5625ZM102.59 33.7354V29.9277C102.59 29.6361 102.531 29.3831 102.412 29.1689C102.298 28.9502 102.125 28.7816 101.893 28.6631C101.66 28.5446 101.373 28.4854 101.031 28.4854C100.712 28.4854 100.432 28.54 100.19 28.6494C99.9535 28.7588 99.7666 28.9023 99.6299 29.0801C99.4978 29.2578 99.4317 29.4492 99.4317 29.6543H98.167C98.167 29.39 98.2354 29.1279 98.3721 28.8682C98.5088 28.6084 98.7048 28.3737 98.96 28.1641C99.2198 27.9499 99.5297 27.7812 99.8897 27.6582C100.254 27.5306 100.66 27.4668 101.106 27.4668C101.644 27.4668 102.118 27.5579 102.528 27.7402C102.943 27.9225 103.267 28.1982 103.499 28.5674C103.736 28.932 103.855 29.39 103.855 29.9414V33.3867C103.855 33.6328 103.875 33.8949 103.916 34.1729C103.962 34.4508 104.028 34.6901 104.114 34.8906V35H102.795C102.731 34.8542 102.681 34.6605 102.645 34.4189C102.608 34.1729 102.59 33.945 102.59 33.7354ZM102.809 30.5156L102.822 31.4043H101.544C101.184 31.4043 100.863 31.4339 100.58 31.4932C100.298 31.5479 100.061 31.6322 99.8692 31.7461C99.6778 31.86 99.5319 32.0036 99.4317 32.1768C99.3314 32.3454 99.2813 32.5436 99.2813 32.7715C99.2813 33.0039 99.3337 33.2158 99.4385 33.4072C99.5433 33.5986 99.7006 33.7513 99.9102 33.8652C100.124 33.9746 100.386 34.0293 100.696 34.0293C101.084 34.0293 101.425 33.9473 101.722 33.7832C102.018 33.6191 102.253 33.4186 102.426 33.1816C102.604 32.9447 102.699 32.7145 102.713 32.4912L103.253 33.0996C103.221 33.291 103.134 33.5029 102.993 33.7354C102.852 33.9678 102.663 34.1911 102.426 34.4053C102.193 34.6149 101.915 34.7904 101.592 34.9316C101.273 35.0684 100.913 35.1367 100.512 35.1367C100.01 35.1367 99.5707 35.0387 99.1924 34.8428C98.8187 34.6468 98.5271 34.3848 98.3174 34.0566C98.1123 33.724 98.0098 33.3525 98.0098 32.9424C98.0098 32.5459 98.0873 32.1973 98.2422 31.8965C98.3972 31.5911 98.6205 31.3382 98.9121 31.1377C99.2038 30.9326 99.5547 30.7777 99.9649 30.6729C100.375 30.568 100.833 30.5156 101.339 30.5156H102.809ZM114.986 33.5645V24.5H116.257V35H115.095L114.986 33.5645ZM110.009 31.3838V31.2402C110.009 30.6751 110.078 30.1624 110.214 29.7021C110.356 29.2373 110.554 28.8385 110.809 28.5059C111.069 28.1732 111.377 27.918 111.732 27.7402C112.092 27.5579 112.493 27.4668 112.935 27.4668C113.4 27.4668 113.806 27.5488 114.152 27.7129C114.503 27.8724 114.799 28.1071 115.041 28.417C115.287 28.7223 115.48 29.0915 115.622 29.5244C115.763 29.9574 115.861 30.4473 115.916 30.9941V31.623C115.865 32.1654 115.767 32.653 115.622 33.0859C115.48 33.5189 115.287 33.888 115.041 34.1934C114.799 34.4987 114.503 34.7334 114.152 34.8975C113.801 35.057 113.391 35.1367 112.921 35.1367C112.489 35.1367 112.092 35.0433 111.732 34.8564C111.377 34.6696 111.069 34.4076 110.809 34.0703C110.554 33.7331 110.356 33.3366 110.214 32.8809C110.078 32.4206 110.009 31.9215 110.009 31.3838ZM111.281 31.2402V31.3838C111.281 31.7529 111.317 32.0993 111.39 32.4229C111.468 32.7464 111.586 33.0312 111.746 33.2773C111.905 33.5234 112.108 33.7171 112.354 33.8584C112.6 33.9951 112.894 34.0635 113.236 34.0635C113.655 34.0635 113.999 33.9746 114.268 33.7969C114.542 33.6191 114.76 33.3844 114.924 33.0928C115.088 32.8011 115.216 32.4844 115.307 32.1426V30.4951C115.252 30.2445 115.173 30.0029 115.068 29.7705C114.968 29.5335 114.836 29.3239 114.671 29.1416C114.512 28.9548 114.314 28.8066 114.077 28.6973C113.844 28.5879 113.569 28.5332 113.25 28.5332C112.903 28.5332 112.605 28.6061 112.354 28.752C112.108 28.8932 111.905 29.0892 111.746 29.3398C111.586 29.5859 111.468 29.873 111.39 30.2012C111.317 30.5247 111.281 30.8711 111.281 31.2402ZM124.08 27.6035V35H122.809V27.6035H124.08ZM122.713 25.6416C122.713 25.4365 122.774 25.2633 122.898 25.1221C123.025 24.9808 123.212 24.9102 123.458 24.9102C123.7 24.9102 123.884 24.9808 124.012 25.1221C124.144 25.2633 124.21 25.4365 124.21 25.6416C124.21 25.8376 124.144 26.0062 124.012 26.1475C123.884 26.2842 123.7 26.3525 123.458 26.3525C123.212 26.3525 123.025 26.2842 122.898 26.1475C122.774 26.0062 122.713 25.8376 122.713 25.6416ZM131.855 29.1826V35H130.59V27.6035H131.787L131.855 29.1826ZM131.554 31.0215L131.028 31.001C131.032 30.4951 131.108 30.028 131.254 29.5996C131.399 29.1667 131.604 28.7907 131.869 28.4717C132.133 28.1527 132.448 27.9066 132.812 27.7334C133.181 27.5557 133.589 27.4668 134.036 27.4668C134.4 27.4668 134.728 27.5169 135.02 27.6172C135.312 27.7129 135.56 27.8678 135.765 28.082C135.975 28.2962 136.134 28.5742 136.244 28.916C136.353 29.2533 136.408 29.6657 136.408 30.1533V35H135.136V30.1396C135.136 29.7523 135.079 29.4424 134.965 29.21C134.851 28.973 134.685 28.8021 134.466 28.6973C134.248 28.5879 133.979 28.5332 133.66 28.5332C133.345 28.5332 133.058 28.5993 132.798 28.7314C132.543 28.8636 132.322 29.0459 132.135 29.2783C131.953 29.5107 131.81 29.7773 131.705 30.0781C131.604 30.3743 131.554 30.6888 131.554 31.0215ZM147.601 27.6035H148.749V34.8428C148.749 35.4945 148.617 36.0505 148.353 36.5107C148.088 36.971 147.719 37.3197 147.245 37.5566C146.776 37.7982 146.234 37.9189 145.618 37.9189C145.363 37.9189 145.062 37.8779 144.716 37.7959C144.374 37.7184 144.037 37.584 143.704 37.3926C143.376 37.2057 143.1 36.9528 142.877 36.6338L143.54 35.8818C143.85 36.2555 144.174 36.5153 144.511 36.6611C144.853 36.807 145.19 36.8799 145.523 36.8799C145.924 36.8799 146.27 36.8047 146.562 36.6543C146.853 36.5039 147.079 36.2806 147.238 35.9844C147.402 35.6927 147.484 35.3327 147.484 34.9043V29.2305L147.601 27.6035ZM142.508 31.3838V31.2402C142.508 30.6751 142.574 30.1624 142.706 29.7021C142.843 29.2373 143.037 28.8385 143.287 28.5059C143.542 28.1732 143.85 27.918 144.21 27.7402C144.57 27.5579 144.976 27.4668 145.427 27.4668C145.892 27.4668 146.297 27.5488 146.644 27.7129C146.995 27.8724 147.291 28.1071 147.532 28.417C147.778 28.7223 147.972 29.0915 148.113 29.5244C148.255 29.9574 148.353 30.4473 148.407 30.9941V31.623C148.357 32.1654 148.259 32.653 148.113 33.0859C147.972 33.5189 147.778 33.888 147.532 34.1934C147.291 34.4987 146.995 34.7334 146.644 34.8975C146.293 35.057 145.883 35.1367 145.413 35.1367C144.971 35.1367 144.57 35.0433 144.21 34.8564C143.855 34.6696 143.549 34.4076 143.294 34.0703C143.039 33.7331 142.843 33.3366 142.706 32.8809C142.574 32.4206 142.508 31.9215 142.508 31.3838ZM143.773 31.2402V31.3838C143.773 31.7529 143.809 32.0993 143.882 32.4229C143.959 32.7464 144.076 33.0312 144.231 33.2773C144.39 33.5234 144.593 33.7171 144.839 33.8584C145.085 33.9951 145.379 34.0635 145.721 34.0635C146.14 34.0635 146.486 33.9746 146.76 33.7969C147.033 33.6191 147.25 33.3844 147.409 33.0928C147.573 32.8011 147.701 32.4844 147.792 32.1426V30.4951C147.742 30.2445 147.665 30.0029 147.56 29.7705C147.459 29.5335 147.327 29.3239 147.163 29.1416C147.004 28.9548 146.805 28.8066 146.568 28.6973C146.331 28.5879 146.053 28.5332 145.734 28.5332C145.388 28.5332 145.09 28.6061 144.839 28.752C144.593 28.8932 144.39 29.0892 144.231 29.3398C144.076 29.5859 143.959 29.873 143.882 30.2012C143.809 30.5247 143.773 30.8711 143.773 31.2402Z" fill="#FE40B2"/>
<path d="M69.4785 17.9268V19H64.208V17.9268H69.4785ZM64.4746 9.04688V19H63.1553V9.04688H64.4746ZM68.7812 13.3262V14.3994H64.208V13.3262H68.7812ZM69.4102 9.04688V10.127H64.208V9.04688H69.4102ZM79.7622 17.7354V13.9277C79.7622 13.6361 79.703 13.3831 79.5845 13.1689C79.4706 12.9502 79.2974 12.7816 79.065 12.6631C78.8325 12.5446 78.5454 12.4854 78.2036 12.4854C77.8846 12.4854 77.6043 12.54 77.3628 12.6494C77.1258 12.7588 76.939 12.9023 76.8023 13.0801C76.6701 13.2578 76.604 13.4492 76.604 13.6543H75.3394C75.3394 13.39 75.4077 13.1279 75.5445 12.8682C75.6812 12.6084 75.8771 12.3737 76.1323 12.1641C76.3921 11.9499 76.702 11.7812 77.062 11.6582C77.4266 11.5306 77.8322 11.4668 78.2788 11.4668C78.8166 11.4668 79.2905 11.5579 79.7007 11.7402C80.1154 11.9225 80.439 12.1982 80.6714 12.5674C80.9084 12.932 81.0269 13.39 81.0269 13.9414V17.3867C81.0269 17.6328 81.0474 17.8949 81.0884 18.1729C81.134 18.4508 81.2001 18.6901 81.2866 18.8906V19H79.9673C79.9035 18.8542 79.8534 18.6605 79.8169 18.4189C79.7805 18.1729 79.7622 17.945 79.7622 17.7354ZM79.981 14.5156L79.9946 15.4043H78.7163C78.3563 15.4043 78.035 15.4339 77.7525 15.4932C77.4699 15.5479 77.2329 15.6322 77.0415 15.7461C76.8501 15.86 76.7043 16.0036 76.604 16.1768C76.5038 16.3454 76.4536 16.5436 76.4536 16.7715C76.4536 17.0039 76.506 17.2158 76.6109 17.4072C76.7157 17.5986 76.8729 17.7513 77.0825 17.8652C77.2967 17.9746 77.5588 18.0293 77.8687 18.0293C78.256 18.0293 78.5978 17.9473 78.8941 17.7832C79.1903 17.6191 79.425 17.4186 79.5982 17.1816C79.7759 16.9447 79.8716 16.7145 79.8853 16.4912L80.4253 17.0996C80.3934 17.291 80.3068 17.5029 80.1655 17.7354C80.0243 17.9678 79.8351 18.1911 79.5982 18.4053C79.3657 18.6149 79.0877 18.7904 78.7642 18.9316C78.4452 19.0684 78.0851 19.1367 77.6841 19.1367C77.1828 19.1367 76.743 19.0387 76.3648 18.8428C75.9911 18.6468 75.6994 18.3848 75.4898 18.0566C75.2847 17.724 75.1821 17.3525 75.1821 16.9424C75.1821 16.5459 75.2596 16.1973 75.4146 15.8965C75.5695 15.5911 75.7928 15.3382 76.0845 15.1377C76.3762 14.9326 76.7271 14.7777 77.1372 14.6729C77.5474 14.568 78.0054 14.5156 78.5112 14.5156H79.981ZM91.8028 17.0381C91.8028 16.8558 91.7618 16.6872 91.6797 16.5322C91.6023 16.3727 91.4405 16.2292 91.1944 16.1016C90.9528 15.9694 90.5883 15.8555 90.1006 15.7598C89.6905 15.6732 89.319 15.5706 88.9864 15.4521C88.6582 15.3337 88.378 15.1901 88.1455 15.0215C87.9177 14.8529 87.7422 14.6546 87.6192 14.4268C87.4961 14.1989 87.4346 13.9323 87.4346 13.627C87.4346 13.3353 87.4984 13.0596 87.626 12.7998C87.7582 12.54 87.9427 12.3099 88.1797 12.1094C88.4213 11.9089 88.7107 11.7516 89.0479 11.6377C89.3851 11.5238 89.7611 11.4668 90.1758 11.4668C90.7683 11.4668 91.2741 11.5716 91.6934 11.7812C92.1127 11.9909 92.434 12.2712 92.6573 12.6221C92.8806 12.9684 92.9922 13.3535 92.9922 13.7773H91.7276C91.7276 13.5723 91.6661 13.374 91.543 13.1826C91.4245 12.9867 91.2491 12.8249 91.0166 12.6973C90.7888 12.5697 90.5085 12.5059 90.1758 12.5059C89.8249 12.5059 89.5401 12.5605 89.3213 12.6699C89.1071 12.7747 88.9499 12.9092 88.8496 13.0732C88.7539 13.2373 88.7061 13.4105 88.7061 13.5928C88.7061 13.7295 88.7289 13.8525 88.7745 13.9619C88.8246 14.0667 88.9112 14.1647 89.0342 14.2559C89.1573 14.3424 89.3304 14.4245 89.5537 14.502C89.7771 14.5794 90.0619 14.6569 90.4082 14.7344C91.0144 14.8711 91.5134 15.0352 91.9053 15.2266C92.2972 15.418 92.5889 15.6527 92.7803 15.9307C92.9717 16.2087 93.0674 16.5459 93.0674 16.9424C93.0674 17.266 92.9991 17.5622 92.8623 17.8311C92.7302 18.0999 92.5365 18.3324 92.2813 18.5283C92.0306 18.7197 91.7299 18.8701 91.3789 18.9795C91.0326 19.0843 90.6429 19.1367 90.21 19.1367C89.5583 19.1367 89.0069 19.0205 88.5557 18.7881C88.1045 18.5557 87.7627 18.2549 87.5303 17.8857C87.2979 17.5166 87.1817 17.127 87.1817 16.7168H88.4532C88.4714 17.0632 88.5717 17.3389 88.7539 17.5439C88.9362 17.7445 89.1595 17.888 89.4239 17.9746C89.6882 18.0566 89.9502 18.0977 90.21 18.0977C90.5564 18.0977 90.8457 18.0521 91.0782 17.9609C91.3151 17.8698 91.4952 17.7445 91.6182 17.585C91.7412 17.4255 91.8028 17.2432 91.8028 17.0381ZM102.305 11.6035V12.5742H98.3062V11.6035H102.305ZM99.6597 9.80566H100.924V17.168C100.924 17.4186 100.963 17.6077 101.041 17.7354C101.118 17.863 101.218 17.9473 101.341 17.9883C101.464 18.0293 101.597 18.0498 101.738 18.0498C101.843 18.0498 101.952 18.0407 102.066 18.0225C102.184 17.9997 102.273 17.9814 102.333 17.9678L102.339 19C102.239 19.0319 102.107 19.0615 101.943 19.0889C101.783 19.1208 101.59 19.1367 101.362 19.1367C101.052 19.1367 100.767 19.0752 100.507 18.9521C100.248 18.8291 100.04 18.624 99.8853 18.3369C99.7349 18.0452 99.6597 17.6533 99.6597 17.1611V9.80566ZM117.828 9.04688V19H116.508V9.04688H117.828ZM125.78 13.1826V19H124.516V11.6035H125.712L125.78 13.1826ZM125.48 15.0215L124.953 15.001C124.958 14.4951 125.033 14.028 125.179 13.5996C125.325 13.1667 125.53 12.7907 125.794 12.4717C126.058 12.1527 126.373 11.9066 126.737 11.7334C127.107 11.5557 127.514 11.4668 127.961 11.4668C128.326 11.4668 128.654 11.5169 128.945 11.6172C129.237 11.7129 129.485 11.8678 129.691 12.082C129.9 12.2962 130.06 12.5742 130.169 12.916C130.278 13.2533 130.333 13.6657 130.333 14.1533V19H129.062V14.1396C129.062 13.7523 129.005 13.4424 128.891 13.21C128.777 12.973 128.61 12.8021 128.392 12.6973C128.173 12.5879 127.904 12.5332 127.585 12.5332C127.271 12.5332 126.984 12.5993 126.724 12.7314C126.469 12.8636 126.248 13.0459 126.061 13.2783C125.878 13.5107 125.735 13.7773 125.63 14.0781C125.53 14.3743 125.48 14.6888 125.48 15.0215ZM141.396 17.5645V8.5H142.668V19H141.506L141.396 17.5645ZM136.42 15.3838V15.2402C136.42 14.6751 136.488 14.1624 136.625 13.7021C136.766 13.2373 136.964 12.8385 137.219 12.5059C137.479 12.1732 137.787 11.918 138.142 11.7402C138.502 11.5579 138.903 11.4668 139.345 11.4668C139.81 11.4668 140.216 11.5488 140.562 11.7129C140.913 11.8724 141.209 12.1071 141.451 12.417C141.697 12.7223 141.891 13.0915 142.032 13.5244C142.173 13.9574 142.271 14.4473 142.326 14.9941V15.623C142.276 16.1654 142.178 16.653 142.032 17.0859C141.891 17.5189 141.697 17.888 141.451 18.1934C141.209 18.4987 140.913 18.7334 140.562 18.8975C140.211 19.057 139.801 19.1367 139.332 19.1367C138.899 19.1367 138.502 19.0433 138.142 18.8564C137.787 18.6696 137.479 18.4076 137.219 18.0703C136.964 17.7331 136.766 17.3366 136.625 16.8809C136.488 16.4206 136.42 15.9215 136.42 15.3838ZM137.691 15.2402V15.3838C137.691 15.7529 137.728 16.0993 137.8 16.4229C137.878 16.7464 137.996 17.0312 138.156 17.2773C138.315 17.5234 138.518 17.7171 138.764 17.8584C139.01 17.9951 139.304 18.0635 139.646 18.0635C140.065 18.0635 140.409 17.9746 140.678 17.7969C140.952 17.6191 141.171 17.3844 141.335 17.0928C141.499 16.8011 141.626 16.4844 141.717 16.1426V14.4951C141.663 14.2445 141.583 14.0029 141.478 13.7705C141.378 13.5335 141.246 13.3239 141.082 13.1416C140.922 12.9548 140.724 12.8066 140.487 12.6973C140.255 12.5879 139.979 12.5332 139.66 12.5332C139.313 12.5332 139.015 12.6061 138.764 12.752C138.518 12.8932 138.315 13.0892 138.156 13.3398C137.996 13.5859 137.878 13.873 137.8 14.2012C137.728 14.5247 137.691 14.8711 137.691 15.2402ZM150.49 11.6035V19H149.219V11.6035H150.49ZM149.123 9.6416C149.123 9.43652 149.185 9.26335 149.308 9.12207C149.435 8.98079 149.622 8.91016 149.868 8.91016C150.11 8.91016 150.294 8.98079 150.422 9.12207C150.554 9.26335 150.62 9.43652 150.62 9.6416C150.62 9.83757 150.554 10.0062 150.422 10.1475C150.294 10.2842 150.11 10.3525 149.868 10.3525C149.622 10.3525 149.435 10.2842 149.308 10.1475C149.185 10.0062 149.123 9.83757 149.123 9.6416ZM161.362 17.7354V13.9277C161.362 13.6361 161.303 13.3831 161.184 13.1689C161.07 12.9502 160.897 12.7816 160.665 12.6631C160.432 12.5446 160.145 12.4854 159.803 12.4854C159.484 12.4854 159.204 12.54 158.963 12.6494C158.726 12.7588 158.539 12.9023 158.402 13.0801C158.27 13.2578 158.204 13.4492 158.204 13.6543H156.939C156.939 13.39 157.007 13.1279 157.144 12.8682C157.281 12.6084 157.477 12.3737 157.732 12.1641C157.992 11.9499 158.302 11.7812 158.662 11.6582C159.026 11.5306 159.432 11.4668 159.879 11.4668C160.416 11.4668 160.89 11.5579 161.3 11.7402C161.715 11.9225 162.039 12.1982 162.271 12.5674C162.508 12.932 162.627 13.39 162.627 13.9414V17.3867C162.627 17.6328 162.647 17.8949 162.688 18.1729C162.734 18.4508 162.8 18.6901 162.886 18.8906V19H161.567C161.503 18.8542 161.453 18.6605 161.417 18.4189C161.38 18.1729 161.362 17.945 161.362 17.7354ZM161.581 14.5156L161.594 15.4043H160.316C159.956 15.4043 159.635 15.4339 159.352 15.4932C159.07 15.5479 158.833 15.6322 158.641 15.7461C158.45 15.86 158.304 16.0036 158.204 16.1768C158.104 16.3454 158.053 16.5436 158.053 16.7715C158.053 17.0039 158.106 17.2158 158.211 17.4072C158.315 17.5986 158.473 17.7513 158.682 17.8652C158.896 17.9746 159.159 18.0293 159.468 18.0293C159.856 18.0293 160.198 17.9473 160.494 17.7832C160.79 17.6191 161.025 17.4186 161.198 17.1816C161.376 16.9447 161.471 16.7145 161.485 16.4912L162.025 17.0996C161.993 17.291 161.907 17.5029 161.765 17.7354C161.624 17.9678 161.435 18.1911 161.198 18.4053C160.966 18.6149 160.688 18.7904 160.364 18.9316C160.045 19.0684 159.685 19.1367 159.284 19.1367C158.783 19.1367 158.343 19.0387 157.965 18.8428C157.591 18.6468 157.299 18.3848 157.09 18.0566C156.884 17.724 156.782 17.3525 156.782 16.9424C156.782 16.5459 156.859 16.1973 157.014 15.8965C157.169 15.5911 157.393 15.3382 157.684 15.1377C157.976 14.9326 158.327 14.7777 158.737 14.6729C159.147 14.568 159.605 14.5156 160.111 14.5156H161.581Z" fill="#FE40B2"/>
<path d="M69.4785 17.9268H69.9785V17.4268H69.4785V17.9268ZM69.4785 19V19.5H69.9785V19H69.4785ZM64.208 19H63.708V19.5H64.208V19ZM64.208 17.9268V17.4268H63.708V17.9268H64.208ZM64.4746 9.04688H64.9746V8.54688H64.4746V9.04688ZM64.4746 19V19.5H64.9746V19H64.4746ZM63.1553 19H62.6553V19.5H63.1553V19ZM63.1553 9.04688V8.54688H62.6553V9.04688H63.1553ZM68.7812 13.3262H69.2812V12.8262H68.7812V13.3262ZM68.7812 14.3994V14.8994H69.2812V14.3994H68.7812ZM64.208 14.3994H63.708V14.8994H64.208V14.3994ZM64.208 13.3262V12.8262H63.708V13.3262H64.208ZM69.4102 9.04688H69.9102V8.54688H69.4102V9.04688ZM69.4102 10.127V10.627H69.9102V10.127H69.4102ZM64.208 10.127H63.708V10.627H64.208V10.127ZM64.208 9.04688V8.54688H63.708V9.04688H64.208ZM68.9785 17.9268V19H69.9785V17.9268H68.9785ZM69.4785 18.5H64.208V19.5H69.4785V18.5ZM64.708 19V17.9268H63.708V19H64.708ZM64.208 18.4268H69.4785V17.4268H64.208V18.4268ZM63.9746 9.04688V19H64.9746V9.04688H63.9746ZM64.4746 18.5H63.1553V19.5H64.4746V18.5ZM63.6553 19V9.04688H62.6553V19H63.6553ZM63.1553 9.54688H64.4746V8.54688H63.1553V9.54688ZM68.2812 13.3262V14.3994H69.2812V13.3262H68.2812ZM68.7812 13.8994H64.208V14.8994H68.7812V13.8994ZM64.708 14.3994V13.3262H63.708V14.3994H64.708ZM64.208 13.8262H68.7812V12.8262H64.208V13.8262ZM68.9102 9.04688V10.127H69.9102V9.04688H68.9102ZM69.4102 9.62695H64.208V10.627H69.4102V9.62695ZM64.708 10.127V9.04688H63.708V10.127H64.708ZM64.208 9.54688H69.4102V8.54688H64.208V9.54688ZM79.5845 13.1689L79.1409 13.4L79.147 13.411L79.5845 13.1689ZM77.3628 12.6494L77.1566 12.1939L77.1533 12.1954L77.3628 12.6494ZM76.8023 13.0801L76.4059 12.7752L76.401 12.7817L76.8023 13.0801ZM76.604 13.6543V14.1543H77.104V13.6543H76.604ZM75.3394 13.6543H74.8394V14.1543H75.3394V13.6543ZM76.1323 12.1641L76.4497 12.5504L76.4504 12.5498L76.1323 12.1641ZM77.062 11.6582L77.2237 12.1313L77.2272 12.1301L77.062 11.6582ZM79.7007 11.7402L79.4976 12.1971L79.4995 12.198L79.7007 11.7402ZM80.6714 12.5674L80.2482 12.8338L80.2522 12.8399L80.6714 12.5674ZM81.0884 18.1729L80.5937 18.2458L80.595 18.2537L81.0884 18.1729ZM81.2866 18.8906H81.7866V18.7873L81.7457 18.6924L81.2866 18.8906ZM81.2866 19V19.5H81.7866V19H81.2866ZM79.9673 19L79.5092 19.2004L79.6403 19.5H79.9673V19ZM79.8169 18.4189L79.3223 18.4922L79.3225 18.4936L79.8169 18.4189ZM79.981 14.5156L80.4809 14.5079L80.4733 14.0156H79.981V14.5156ZM79.9946 15.4043V15.9043H80.5024L80.4946 15.3966L79.9946 15.4043ZM77.7525 15.4932L77.8475 15.9841L77.8551 15.9825L77.7525 15.4932ZM76.604 16.1768L77.0338 16.4323L77.0367 16.4273L76.604 16.1768ZM77.0825 17.8652L76.8437 18.3047L76.8552 18.3105L77.0825 17.8652ZM79.5982 17.1816L79.1981 16.8816L79.1945 16.8866L79.5982 17.1816ZM79.8853 16.4912L80.2592 16.1593L79.4598 15.2587L79.3862 16.4607L79.8853 16.4912ZM80.4253 17.0996L80.9185 17.1818L80.9578 16.9463L80.7992 16.7677L80.4253 17.0996ZM79.5982 18.4053L79.933 18.7766L79.9334 18.7762L79.5982 18.4053ZM78.7642 18.9316L78.9611 19.3912L78.9643 19.3899L78.7642 18.9316ZM76.3648 18.8428L76.1326 19.2856L76.1348 19.2867L76.3648 18.8428ZM75.4898 18.0566L75.0641 18.319L75.0684 18.3258L75.4898 18.0566ZM75.4146 15.8965L75.8591 16.1255L75.8604 16.1227L75.4146 15.8965ZM76.0845 15.1377L76.3678 15.5497L76.3721 15.5467L76.0845 15.1377ZM80.2622 17.7354V13.9277H79.2622V17.7354H80.2622ZM80.2622 13.9277C80.2622 13.5676 80.1887 13.2282 80.022 12.9269L79.147 13.411C79.2173 13.5381 79.2622 13.7045 79.2622 13.9277H80.2622ZM80.0279 12.938C79.8631 12.6215 79.6115 12.3805 79.2921 12.2176L78.8379 13.1085C78.9833 13.1827 79.078 13.2789 79.141 13.3999L80.0279 12.938ZM79.2921 12.2176C78.9709 12.0539 78.6008 11.9854 78.2036 11.9854V12.9854C78.4901 12.9854 78.6941 13.0353 78.8379 13.1085L79.2921 12.2176ZM78.2036 11.9854C77.8277 11.9854 77.4747 12.0499 77.1566 12.1939L77.5691 13.1049C77.734 13.0302 77.9416 12.9854 78.2036 12.9854V11.9854ZM77.1533 12.1954C76.855 12.3331 76.5995 12.5236 76.406 12.7752L77.1986 13.3849C77.2785 13.281 77.3967 13.1845 77.5723 13.1034L77.1533 12.1954ZM76.401 12.7817C76.2102 13.0384 76.104 13.333 76.104 13.6543H77.104C77.104 13.5655 77.13 13.4772 77.2035 13.3784L76.401 12.7817ZM76.604 13.1543H75.3394V14.1543H76.604V13.1543ZM75.8394 13.6543C75.8394 13.4798 75.8837 13.2971 75.9869 13.101L75.102 12.6353C74.9317 12.9588 74.8394 13.3002 74.8394 13.6543H75.8394ZM75.9869 13.101C76.0889 12.9072 76.2396 12.723 76.4497 12.5504L75.815 11.7777C75.5147 12.0244 75.2734 12.3096 75.102 12.6353L75.9869 13.101ZM76.4504 12.5498C76.6581 12.3786 76.9133 12.2374 77.2237 12.1313L76.9003 11.1851C76.4907 11.3251 76.1261 11.5212 75.8143 11.7783L76.4504 12.5498ZM77.2272 12.1301C77.5311 12.0238 77.8798 11.9668 78.2788 11.9668V10.9668C77.7846 10.9668 77.3221 11.0374 76.8969 11.1863L77.2272 12.1301ZM78.2788 11.9668C78.7602 11.9668 79.1628 12.0483 79.4976 12.1971L79.9038 11.2833C79.4183 11.0676 78.8729 10.9668 78.2788 10.9668V11.9668ZM79.4995 12.198C79.8265 12.3417 80.0712 12.5525 80.2483 12.8338L81.0945 12.301C80.8068 11.8439 80.4043 11.5033 79.9019 11.2825L79.4995 12.198ZM80.2522 12.8399C80.424 13.1041 80.5269 13.4609 80.5269 13.9414H81.5269C81.5269 13.319 81.3928 12.7598 81.0906 12.2949L80.2522 12.8399ZM80.5269 13.9414V17.3867H81.5269V13.9414H80.5269ZM80.5269 17.3867C80.5269 17.6604 80.5497 17.947 80.5938 18.2458L81.583 18.0999C81.5451 17.8427 81.5269 17.6052 81.5269 17.3867H80.5269ZM80.595 18.2537C80.6454 18.5611 80.7209 18.8418 80.8276 19.0888L81.7457 18.6924C81.6792 18.5384 81.6226 18.3406 81.5818 18.092L80.595 18.2537ZM80.7866 18.8906V19H81.7866V18.8906H80.7866ZM81.2866 18.5H79.9673V19.5H81.2866V18.5ZM80.4254 18.7996C80.3859 18.7093 80.3443 18.563 80.3113 18.3443L79.3225 18.4936C79.3624 18.758 79.4211 18.9991 79.5092 19.2004L80.4254 18.7996ZM80.3115 18.3457C80.278 18.1195 80.2622 17.9164 80.2622 17.7354H79.2622C79.2622 17.9735 79.2829 18.2262 79.3223 18.4922L80.3115 18.3457ZM79.481 14.5233L79.4947 15.412L80.4946 15.3966L80.4809 14.5079L79.481 14.5233ZM79.9946 14.9043H78.7163V15.9043H79.9946V14.9043ZM78.7163 14.9043C78.3299 14.9043 77.9732 14.936 77.6499 15.0038L77.8551 15.9825C78.0968 15.9318 78.3827 15.9043 78.7163 15.9043V14.9043ZM77.6574 15.0023C77.3339 15.0649 77.0389 15.1658 76.7858 15.3164L77.2973 16.1757C77.4269 16.0986 77.6059 16.0308 77.8475 15.9841L77.6574 15.0023ZM76.7858 15.3164C76.5295 15.469 76.319 15.6712 76.1713 15.9262L77.0367 16.4273C77.0896 16.336 77.1707 16.2511 77.2973 16.1757L76.7858 15.3164ZM76.1743 15.9212C76.021 16.1789 75.9536 16.4684 75.9536 16.7715H76.9536C76.9536 16.6188 76.9865 16.5119 77.0338 16.4323L76.1743 15.9212ZM75.9536 16.7715C75.9536 17.0822 76.0246 17.3776 76.1723 17.6474L77.0494 17.1671C76.9875 17.0541 76.9536 16.9256 76.9536 16.7715H75.9536ZM76.1723 17.6474C76.3275 17.9308 76.558 18.1492 76.8438 18.3045L77.3213 17.4259C77.1878 17.3534 77.1038 17.2665 77.0494 17.1671L76.1723 17.6474ZM76.8552 18.3105C77.1571 18.4647 77.5018 18.5293 77.8687 18.5293V17.5293C77.6157 17.5293 77.4364 17.4845 77.3099 17.4199L76.8552 18.3105ZM77.8687 18.5293C78.3284 18.5293 78.7558 18.4313 79.1363 18.2206L78.6518 17.3458C78.4398 17.4632 78.1836 17.5293 77.8687 17.5293V18.5293ZM79.1363 18.2206C79.4863 18.0267 79.7797 17.7806 80.0019 17.4766L79.1945 16.8866C79.0702 17.0566 78.8942 17.2115 78.6518 17.3458L79.1363 18.2206ZM79.9982 17.4816C80.2159 17.1913 80.363 16.8696 80.3843 16.5218L79.3862 16.4607C79.3802 16.5594 79.3359 16.698 79.1982 16.8816L79.9982 17.4816ZM79.5113 16.8231L80.0514 17.4315L80.7992 16.7677L80.2592 16.1593L79.5113 16.8231ZM79.9321 17.0174C79.914 17.1262 79.8588 17.2774 79.7383 17.4756L80.5928 17.9951C80.7548 17.7285 80.8728 17.4558 80.9185 17.1818L79.9321 17.0174ZM79.7383 17.4756C79.6261 17.6603 79.4701 17.8471 79.2629 18.0343L79.9334 18.7762C80.2002 18.5351 80.4225 18.2753 80.5928 17.9951L79.7383 17.4756ZM79.2633 18.034C79.0756 18.2033 78.8446 18.351 78.5641 18.4734L78.9643 19.3899C79.3309 19.2298 79.6559 19.0265 79.933 18.7766L79.2633 18.034ZM78.5672 18.4721C78.3194 18.5783 78.0279 18.6367 77.6841 18.6367V19.6367C78.1424 19.6367 78.571 19.5584 78.9611 19.3912L78.5672 18.4721ZM77.6841 18.6367C77.2487 18.6367 76.8904 18.552 76.5948 18.3988L76.1348 19.2867C76.5957 19.5255 77.1169 19.6367 77.6841 19.6367V18.6367ZM76.597 18.4C76.2937 18.2409 76.07 18.0361 75.9111 17.7874L75.0684 18.3258C75.3288 18.7334 75.6884 19.0527 76.1326 19.2856L76.597 18.4ZM75.9154 17.7943C75.7614 17.5445 75.6821 17.2647 75.6821 16.9424H74.6821C74.6821 17.4404 74.808 17.9035 75.0641 18.319L75.9154 17.7943ZM75.6821 16.9424C75.6821 16.6119 75.7464 16.3442 75.8591 16.1255L74.9701 15.6675C74.7729 16.0503 74.6821 16.4799 74.6821 16.9424H75.6821ZM75.8604 16.1227C75.9763 15.8945 76.1426 15.7045 76.3678 15.5497L75.8012 14.7257C75.4431 14.9719 75.1628 15.2878 74.9687 15.6702L75.8604 16.1227ZM76.3721 15.5467C76.6058 15.3823 76.8988 15.2498 77.261 15.1573L77.0134 14.1884C76.5553 14.3055 76.1465 14.4829 75.7969 14.7287L76.3721 15.5467ZM77.261 15.1573C77.6238 15.0646 78.0393 15.0156 78.5112 15.0156V14.0156C77.9715 14.0156 77.471 14.0715 77.0134 14.1884L77.261 15.1573ZM78.5112 15.0156H79.981V14.0156H78.5112V15.0156ZM91.6797 16.5322L91.23 16.7507L91.2338 16.7585L91.2378 16.7662L91.6797 16.5322ZM91.1944 16.1016L90.9543 16.5403L90.9642 16.5454L91.1944 16.1016ZM90.1006 15.7598L89.9973 16.249L90.0043 16.2504L90.1006 15.7598ZM88.9864 15.4521L88.8165 15.9224L88.8186 15.9232L88.9864 15.4521ZM88.1455 15.0215L87.8481 15.4234L87.8519 15.4262L88.1455 15.0215ZM87.626 12.7998L87.1803 12.5731L87.1772 12.5794L87.626 12.7998ZM88.1797 12.1094L87.8603 11.7247L87.8568 11.7277L88.1797 12.1094ZM92.6573 12.6221L92.2354 12.8905L92.237 12.893L92.6573 12.6221ZM92.9922 13.7773V14.2773H93.4922V13.7773H92.9922ZM91.7276 13.7773H91.2276V14.2773H91.7276V13.7773ZM91.543 13.1826L91.115 13.4414L91.1224 13.453L91.543 13.1826ZM91.0166 12.6973L90.7723 13.1335L90.776 13.1356L91.0166 12.6973ZM89.3213 12.6699L89.5411 13.119L89.5449 13.1171L89.3213 12.6699ZM88.8496 13.0732L88.4229 12.8125L88.4178 12.8213L88.8496 13.0732ZM88.7745 13.9619L88.3129 14.1542L88.3178 14.1661L88.3234 14.1776L88.7745 13.9619ZM89.0342 14.2559L88.7365 14.6578L88.7465 14.6648L89.0342 14.2559ZM90.4082 14.7344L90.5183 14.2466L90.5174 14.2464L90.4082 14.7344ZM92.8623 17.8311L92.4166 17.6044L92.4136 17.6105L92.8623 17.8311ZM92.2813 18.5283L92.5847 18.9257L92.5858 18.9249L92.2813 18.5283ZM91.3789 18.9795L91.5238 19.4581L91.5277 19.4568L91.3789 18.9795ZM87.1817 16.7168V16.2168H86.6817V16.7168H87.1817ZM88.4532 16.7168L88.9525 16.6905L88.9275 16.2168H88.4532V16.7168ZM88.7539 17.5439L88.3802 17.8761L88.384 17.8803L88.7539 17.5439ZM89.4239 17.9746L89.2682 18.4498L89.2757 18.4521L89.4239 17.9746ZM91.0782 17.9609L90.8987 17.4943L90.8956 17.4955L91.0782 17.9609ZM92.3028 17.0381C92.3028 16.7776 92.2433 16.5282 92.1216 16.2983L91.2378 16.7662C91.2802 16.8461 91.3028 16.934 91.3028 17.0381H92.3028ZM92.1295 16.3138C91.9851 16.0166 91.7159 15.8088 91.4245 15.6577L90.9642 16.5454C91.165 16.6496 91.2194 16.7289 91.23 16.7507L92.1295 16.3138ZM91.4344 15.6629C91.1254 15.4939 90.7013 15.3681 90.1969 15.2691L90.0043 16.2504C90.4752 16.3428 90.7803 16.4449 90.9544 16.5402L91.4344 15.6629ZM90.2039 15.2705C89.8117 15.1878 89.4623 15.0909 89.1541 14.9811L88.8186 15.9232C89.1758 16.0504 89.5692 16.1586 89.9973 16.249L90.2039 15.2705ZM89.1562 14.9819C88.8631 14.876 88.6265 14.7527 88.4392 14.6168L87.8519 15.4262C88.1295 15.6275 88.4534 15.7913 88.8165 15.9224L89.1562 14.9819ZM88.443 14.6196C88.2684 14.4904 88.1441 14.3466 88.0591 14.1892L87.1792 14.6643C87.3403 14.9627 87.5669 15.2153 87.8481 15.4234L88.443 14.6196ZM88.0591 14.1892C87.982 14.0464 87.9346 13.8642 87.9346 13.627H86.9346C86.9346 14.0004 87.0103 14.3514 87.1792 14.6643L88.0591 14.1892ZM87.9346 13.627C87.9346 13.4111 87.9812 13.2109 88.0748 13.0203L87.1772 12.5794C87.0157 12.9083 86.9346 13.2595 86.9346 13.627H87.9346ZM88.0717 13.0265C88.1717 12.8299 88.3132 12.6514 88.5027 12.4911L87.8568 11.7277C87.5723 11.9683 87.3446 12.2502 87.1804 12.5731L88.0717 13.0265ZM88.4991 12.4941C88.6875 12.3376 88.9211 12.2083 89.2079 12.1114L88.8879 11.164C88.5002 11.295 88.155 11.4801 87.8603 11.7247L88.4991 12.4941ZM89.2079 12.1114C89.4859 12.0175 89.8067 11.9668 90.1758 11.9668V10.9668C89.7155 10.9668 89.2844 11.03 88.8879 11.164L89.2079 12.1114ZM90.1758 11.9668C90.7106 11.9668 91.1358 12.0615 91.4698 12.2285L91.917 11.334C91.4124 11.0818 90.826 10.9668 90.1758 10.9668V11.9668ZM91.4698 12.2285C91.8185 12.4028 92.0667 12.6254 92.2354 12.8905L93.0791 12.3536C92.8012 11.9169 92.4068 11.5789 91.917 11.334L91.4698 12.2285ZM92.237 12.893C92.4067 13.1562 92.4922 13.4467 92.4922 13.7773H93.4922C93.4922 13.2603 93.3544 12.7807 93.0775 12.3511L92.237 12.893ZM92.9922 13.2773H91.7276V14.2773H92.9922V13.2773ZM92.2276 13.7773C92.2276 13.4661 92.1326 13.1751 91.9636 12.9122L91.1224 13.453C91.1995 13.5729 91.2276 13.6785 91.2276 13.7773H92.2276ZM91.9709 12.9239C91.8001 12.6415 91.5545 12.4222 91.2573 12.259L90.776 13.1356C90.9436 13.2276 91.0489 13.3318 91.1151 13.4413L91.9709 12.9239ZM91.2609 12.261C90.9407 12.0817 90.5711 12.0059 90.1758 12.0059V13.0059C90.4459 13.0059 90.6369 13.0577 90.7723 13.1335L91.2609 12.261ZM90.1758 12.0059C89.7787 12.0059 89.4094 12.0669 89.0977 12.2227L89.5449 13.1171C89.6708 13.0542 89.8711 13.0059 90.1758 13.0059V12.0059ZM89.1016 12.2208C88.8224 12.3574 88.5836 12.5497 88.423 12.8125L89.2763 13.334C89.3162 13.2686 89.3919 13.1921 89.5411 13.119L89.1016 12.2208ZM88.4178 12.8213C88.2794 13.0585 88.2061 13.3182 88.2061 13.5928H89.2061C89.2061 13.5028 89.2285 13.4161 89.2815 13.3252L88.4178 12.8213ZM88.2061 13.5928C88.2061 13.7854 88.2383 13.9753 88.3129 14.1542L89.236 13.7696C89.2194 13.7298 89.2061 13.6735 89.2061 13.5928H88.2061ZM88.3234 14.1776C88.4181 14.3757 88.5681 14.5328 88.7366 14.6576L89.3318 13.8541C89.2543 13.7966 89.231 13.7577 89.2255 13.7462L88.3234 14.1776ZM88.7465 14.6648C88.9229 14.7889 89.1446 14.8892 89.3899 14.9743L89.7176 14.0296C89.5163 13.9597 89.3916 13.896 89.322 13.847L88.7465 14.6648ZM89.3899 14.9743C89.6376 15.0603 89.9424 15.1425 90.2991 15.2223L90.5174 14.2464C90.1814 14.1713 89.9165 14.0986 89.7176 14.0296L89.3899 14.9743ZM90.2982 15.2221C90.8811 15.3536 91.3401 15.507 91.6859 15.6758L92.1247 14.7773C91.6867 14.5634 91.1477 14.3886 90.5183 14.2466L90.2982 15.2221ZM91.6859 15.6758C92.0225 15.8403 92.2381 16.0249 92.3685 16.2142L93.1921 15.6471C92.9397 15.2805 92.5719 14.9957 92.1247 14.7773L91.6859 15.6758ZM92.3685 16.2142C92.493 16.395 92.5674 16.629 92.5674 16.9424H93.5674C93.5674 16.4628 93.4505 16.0223 93.1921 15.6471L92.3685 16.2142ZM92.5674 16.9424C92.5674 17.193 92.5151 17.4108 92.4167 17.6044L93.308 18.0577C93.483 17.7135 93.5674 17.3389 93.5674 16.9424H92.5674ZM92.4136 17.6105C92.3178 17.8054 92.1756 17.9791 91.9768 18.1317L92.5858 18.9249C92.8974 18.6857 93.1425 18.3945 93.3111 18.0516L92.4136 17.6105ZM91.9778 18.1309C91.7807 18.2815 91.5343 18.4073 91.2302 18.5021L91.5277 19.4568C91.9254 19.3329 92.2806 19.1579 92.5847 18.9257L91.9778 18.1309ZM91.2341 18.5009C90.9429 18.5891 90.6032 18.6367 90.21 18.6367V19.6367C90.6827 19.6367 91.1223 19.5796 91.5238 19.4581L91.2341 18.5009ZM90.21 18.6367C89.616 18.6367 89.1478 18.5307 88.7847 18.3436L88.3267 19.2326C88.8659 19.5104 89.5006 19.6367 90.21 19.6367V18.6367ZM88.7847 18.3436C88.3998 18.1453 88.1309 17.9012 87.9534 17.6193L87.1072 18.1521C87.3946 18.6085 87.8092 18.966 88.3267 19.2326L88.7847 18.3436ZM87.9534 17.6193C87.7679 17.3247 87.6817 17.0266 87.6817 16.7168H86.6817C86.6817 17.2273 86.8279 17.7085 87.1072 18.1521L87.9534 17.6193ZM87.1817 17.2168H88.4532V16.2168H87.1817V17.2168ZM87.9539 16.7431C87.9764 17.1722 88.1046 17.566 88.3802 17.8761L89.1276 17.2118C89.0388 17.1118 88.9663 16.9541 88.9525 16.6905L87.9539 16.7431ZM88.384 17.8803C88.6261 18.1466 88.9239 18.337 89.2682 18.4498L89.5795 17.4995C89.3952 17.4391 89.2464 17.3423 89.1239 17.2076L88.384 17.8803ZM89.2757 18.4521C89.5848 18.5481 89.8968 18.5977 90.21 18.5977V17.5977C90.0037 17.5977 89.7915 17.5652 89.5721 17.4971L89.2757 18.4521ZM90.21 18.5977C90.5963 18.5977 90.9523 18.5474 91.2607 18.4264L90.8956 17.4955C90.7392 17.5568 90.5164 17.5977 90.21 17.5977V18.5977ZM91.2577 18.4276C91.5581 18.312 91.8222 18.1391 92.0141 17.8904L91.2223 17.2796C91.1681 17.3498 91.0722 17.4275 90.8987 17.4943L91.2577 18.4276ZM92.0141 17.8904C92.2059 17.6417 92.3028 17.3515 92.3028 17.0381H91.3028C91.3028 17.1348 91.2766 17.2092 91.2223 17.2796L92.0141 17.8904ZM102.305 11.6035H102.805V11.1035H102.305V11.6035ZM102.305 12.5742V13.0742H102.805V12.5742H102.305ZM98.3062 12.5742H97.8062V13.0742H98.3062V12.5742ZM98.3062 11.6035V11.1035H97.8062V11.6035H98.3062ZM99.6597 9.80566V9.30566H99.1597V9.80566H99.6597ZM100.924 9.80566H101.424V9.30566H100.924V9.80566ZM102.066 18.0225L102.145 18.5162L102.153 18.5149L102.16 18.5135L102.066 18.0225ZM102.333 17.9678L102.833 17.9645L102.828 17.3402L102.22 17.4806L102.333 17.9678ZM102.339 19L102.491 19.4765L102.842 19.3648L102.839 18.9967L102.339 19ZM101.943 19.0889L101.861 18.5957L101.853 18.597L101.845 18.5986L101.943 19.0889ZM99.8853 18.3369L99.4408 18.5661L99.4453 18.5744L99.8853 18.3369ZM101.805 11.6035V12.5742H102.805V11.6035H101.805ZM102.305 12.0742H98.3062V13.0742H102.305V12.0742ZM98.8062 12.5742V11.6035H97.8062V12.5742H98.8062ZM98.3062 12.1035H102.305V11.1035H98.3062V12.1035ZM99.6597 10.3057H100.924V9.30566H99.6597V10.3057ZM100.424 9.80566V17.168H101.424V9.80566H100.424ZM100.424 17.168C100.424 17.455 100.466 17.7525 100.613 17.9948L101.468 17.4759C101.46 17.463 101.424 17.3823 101.424 17.168H100.424ZM100.613 17.9948C100.742 18.2075 100.931 18.3786 101.183 18.4626L101.499 17.5139C101.498 17.5136 101.498 17.5136 101.496 17.5116C101.493 17.509 101.482 17.4995 101.468 17.4759L100.613 17.9948ZM101.183 18.4626C101.362 18.5221 101.548 18.5498 101.738 18.5498V17.5498C101.646 17.5498 101.567 17.5365 101.499 17.5139L101.183 18.4626ZM101.738 18.5498C101.872 18.5498 102.007 18.5382 102.145 18.5162L101.987 17.5287C101.897 17.5432 101.814 17.5498 101.738 17.5498V18.5498ZM102.16 18.5135C102.28 18.4904 102.376 18.4708 102.445 18.455L102.22 17.4806C102.17 17.4921 102.089 17.5089 101.972 17.5315L102.16 18.5135ZM101.833 17.9711L101.839 19.0033L102.839 18.9967L102.833 17.9645L101.833 17.9711ZM102.188 18.5235C102.119 18.5453 102.013 18.5703 101.861 18.5957L102.025 19.5821C102.201 19.5528 102.359 19.5185 102.491 19.4765L102.188 18.5235ZM101.845 18.5986C101.728 18.622 101.569 18.6367 101.362 18.6367V19.6367C101.611 19.6367 101.839 19.6195 102.041 19.5792L101.845 18.5986ZM101.362 18.6367C101.12 18.6367 100.909 18.5892 100.721 18.5003L100.293 19.404C100.625 19.5612 100.984 19.6367 101.362 19.6367V18.6367ZM100.721 18.5003C100.571 18.4288 100.437 18.3061 100.325 18.0994L99.4453 18.5744C99.6437 18.942 99.9246 19.2294 100.293 19.404L100.721 18.5003ZM100.33 18.1078C100.23 17.9136 100.16 17.6102 100.16 17.1611H99.1597C99.1597 17.6965 99.2403 18.1769 99.4409 18.5661L100.33 18.1078ZM100.16 17.1611V9.80566H99.1597V17.1611H100.16ZM117.828 9.04688H118.328V8.54688H117.828V9.04688ZM117.828 19V19.5H118.328V19H117.828ZM116.508 19H116.008V19.5H116.508V19ZM116.508 9.04688V8.54688H116.008V9.04688H116.508ZM117.328 9.04688V19H118.328V9.04688H117.328ZM117.828 18.5H116.508V19.5H117.828V18.5ZM117.008 19V9.04688H116.008V19H117.008ZM116.508 9.54688H117.828V8.54688H116.508V9.54688ZM125.78 13.1826H126.28V13.1718L126.28 13.161L125.78 13.1826ZM125.78 19V19.5H126.28V19H125.78ZM124.516 19H124.016V19.5H124.516V19ZM124.516 11.6035V11.1035H124.016V11.6035H124.516ZM125.712 11.6035L126.212 11.5819L126.191 11.1035H125.712V11.6035ZM125.48 15.0215L125.46 15.5211L125.98 15.5413V15.0215H125.48ZM124.953 15.001L124.453 14.9965L124.449 15.4817L124.934 15.5006L124.953 15.001ZM125.179 13.5996L125.652 13.7607L125.653 13.7592L125.179 13.5996ZM125.794 12.4717L125.409 12.1527L125.794 12.4717ZM126.737 11.7334L126.952 12.185L126.954 12.1839L126.737 11.7334ZM128.945 11.6172L128.783 12.0901L128.79 12.0923L128.945 11.6172ZM129.691 12.082L129.329 12.4278L129.333 12.4318L129.691 12.082ZM130.169 12.916L129.693 13.0684L129.693 13.0703L130.169 12.916ZM130.333 19V19.5H130.833V19H130.333ZM129.062 19H128.562V19.5H129.062V19ZM128.891 13.21L128.44 13.4266L128.442 13.43L128.891 13.21ZM128.392 12.6973L128.168 13.1445L128.176 13.1482L128.392 12.6973ZM126.724 12.7314L126.497 12.2858L126.494 12.2874L126.724 12.7314ZM126.061 13.2783L125.671 12.965L125.667 12.9698L126.061 13.2783ZM125.63 14.0781L125.158 13.9136L125.156 13.9178L125.63 14.0781ZM125.28 13.1826V19H126.28V13.1826H125.28ZM125.78 18.5H124.516V19.5H125.78V18.5ZM125.016 19V11.6035H124.016V19H125.016ZM124.516 12.1035H125.712V11.1035H124.516V12.1035ZM125.213 11.6251L125.281 13.2042L126.28 13.161L126.212 11.5819L125.213 11.6251ZM125.499 14.5219L124.973 14.5014L124.934 15.5006L125.46 15.5211L125.499 14.5219ZM125.453 15.0055C125.457 14.5467 125.525 14.1331 125.652 13.7607L124.706 13.4385C124.541 13.9229 124.458 14.4435 124.453 14.9965L125.453 15.0055ZM125.653 13.7592C125.781 13.3784 125.958 13.0578 126.179 12.7907L125.409 12.1527C125.102 12.5235 124.868 12.9549 124.705 13.44L125.653 13.7592ZM126.179 12.7907C126.398 12.5263 126.655 12.3261 126.952 12.185L126.523 11.2818C126.091 11.487 125.719 11.7791 125.409 12.1527L126.179 12.7907ZM126.954 12.1839C127.25 12.0416 127.583 11.9668 127.961 11.9668V10.9668C127.446 10.9668 126.963 11.0697 126.521 11.2829L126.954 12.1839ZM127.961 11.9668C128.28 11.9668 128.552 12.0107 128.783 12.09L129.108 11.1443C128.755 11.0232 128.371 10.9668 127.961 10.9668V11.9668ZM128.79 12.0923C129.006 12.1633 129.183 12.275 129.329 12.4278L130.052 11.7362C129.788 11.4606 129.468 11.2625 129.101 11.1421L128.79 12.0923ZM129.333 12.4318C129.479 12.5804 129.603 12.7862 129.693 13.0684L130.645 12.7636C130.517 12.3622 130.322 12.0121 130.048 11.7323L129.333 12.4318ZM129.693 13.0703C129.782 13.3429 129.833 13.6999 129.833 14.1533H130.833C130.833 13.6315 130.775 13.1636 130.645 12.7618L129.693 13.0703ZM129.833 14.1533V19H130.833V14.1533H129.833ZM130.333 18.5H129.062V19.5H130.333V18.5ZM129.562 19V14.1396H128.562V19H129.562ZM129.562 14.1396C129.562 13.7107 129.5 13.3163 129.34 12.9899L128.442 13.43C128.51 13.5685 128.562 13.7939 128.562 14.1396H129.562ZM129.341 12.9933C129.183 12.663 128.938 12.4046 128.608 12.2464L128.176 13.1482C128.283 13.1996 128.371 13.2829 128.44 13.4266L129.341 12.9933ZM128.615 12.2501C128.309 12.097 127.959 12.0332 127.585 12.0332V13.0332C127.849 13.0332 128.037 13.0787 128.168 13.1445L128.615 12.2501ZM127.585 12.0332C127.198 12.0332 126.832 12.1151 126.497 12.2858L126.95 13.1771C127.135 13.0834 127.343 13.0332 127.585 13.0332V12.0332ZM126.494 12.2874C126.175 12.4528 125.9 12.6805 125.671 12.965L126.45 13.5916C126.595 13.4113 126.763 13.2744 126.954 13.1754L126.494 12.2874ZM125.667 12.9698C125.448 13.2488 125.279 13.5649 125.158 13.9136L126.102 14.2427C126.19 13.9898 126.308 13.7727 126.454 13.5869L125.667 12.9698ZM125.156 13.9178C125.038 14.2689 124.98 14.6378 124.98 15.0215H125.98C125.98 14.7398 126.022 14.4798 126.104 14.2384L125.156 13.9178ZM141.396 17.5645H140.896V17.5835L140.898 17.6024L141.396 17.5645ZM141.396 8.5V8H140.896V8.5H141.396ZM142.668 8.5H143.168V8H142.668V8.5ZM142.668 19V19.5H143.168V19H142.668ZM141.506 19L141.007 19.038L141.042 19.5H141.506V19ZM136.625 13.7021L136.146 13.5568L136.145 13.5598L136.625 13.7021ZM137.219 12.5059L136.825 12.1981L136.823 12.2015L137.219 12.5059ZM138.142 11.7402L138.366 12.1875L138.368 12.1863L138.142 11.7402ZM140.562 11.7129L140.348 12.1648L140.355 12.1681L140.562 11.7129ZM141.451 12.417L141.056 12.7244L141.062 12.7308L141.451 12.417ZM142.326 14.9941H142.826V14.9692L142.823 14.9444L142.326 14.9941ZM142.326 15.623L142.824 15.6691L142.826 15.6461V15.623H142.326ZM142.032 17.0859L141.558 16.9263L141.557 16.9308L142.032 17.0859ZM141.451 18.1934L141.062 17.8796L141.059 17.8832L141.451 18.1934ZM140.562 18.8975L140.769 19.3527L140.774 19.3504L140.562 18.8975ZM138.142 18.8564L137.91 19.299L137.912 19.3002L138.142 18.8564ZM137.219 18.0703L136.821 18.372L136.823 18.3754L137.219 18.0703ZM136.625 16.8809L136.145 17.0232L136.147 17.0289L136.625 16.8809ZM137.8 16.4229L137.313 16.5328L137.314 16.5393L137.8 16.4229ZM138.764 17.8584L138.515 18.2921L138.521 18.2955L138.764 17.8584ZM140.678 17.7969L140.406 17.3776L140.403 17.3798L140.678 17.7969ZM141.717 16.1426L142.201 16.2714L142.217 16.2081V16.1426H141.717ZM141.717 14.4951H142.217V14.4412L142.206 14.3885L141.717 14.4951ZM141.478 13.7705L141.018 13.9654L141.022 13.9761L141.478 13.7705ZM141.082 13.1416L140.701 13.4663L140.71 13.4761L141.082 13.1416ZM140.487 12.6973L140.274 13.1497L140.277 13.1512L140.487 12.6973ZM138.764 12.752L139.013 13.1856L139.016 13.1841L138.764 12.752ZM138.156 13.3398L138.575 13.6118L138.578 13.6083L138.156 13.3398ZM137.8 14.2012L137.314 14.0863L137.313 14.0913L137.8 14.2012ZM141.896 17.5645V8.5H140.896V17.5645H141.896ZM141.396 9H142.668V8H141.396V9ZM142.168 8.5V19H143.168V8.5H142.168ZM142.668 18.5H141.506V19.5H142.668V18.5ZM142.004 18.962L141.895 17.5265L140.898 17.6024L141.007 19.038L142.004 18.962ZM136.92 15.3838V15.2402H135.92V15.3838H136.92ZM136.92 15.2402C136.92 14.7151 136.983 14.2513 137.104 13.8445L136.145 13.5598C135.993 14.0736 135.92 14.6352 135.92 15.2402H136.92ZM137.103 13.8475C137.23 13.4312 137.403 13.0883 137.616 12.8102L136.823 12.2015C136.526 12.5888 136.302 13.0434 136.146 13.5568L137.103 13.8475ZM137.613 12.8136C137.83 12.5358 138.081 12.3299 138.366 12.1874L137.919 11.293C137.493 11.506 137.128 11.8106 136.825 12.1981L137.613 12.8136ZM138.368 12.1863C138.652 12.0428 138.974 11.9668 139.345 11.9668V10.9668C138.832 10.9668 138.353 11.0731 137.916 11.2942L138.368 12.1863ZM139.345 11.9668C139.752 11.9668 140.081 12.0384 140.348 12.1648L140.776 11.261C140.35 11.0592 139.869 10.9668 139.345 10.9668V11.9668ZM140.355 12.1681C140.631 12.2935 140.864 12.4769 141.056 12.7244L141.845 12.1096C141.555 11.7373 141.195 11.4513 140.769 11.2577L140.355 12.1681ZM141.062 12.7308C141.264 12.9819 141.431 13.2951 141.557 13.6795L142.507 13.3693C142.35 12.8878 142.13 12.4628 141.84 12.1032L141.062 12.7308ZM141.557 13.6795C141.685 14.0721 141.776 14.5257 141.828 15.0439L142.823 14.9444C142.766 14.3688 142.662 13.8426 142.507 13.3693L141.557 13.6795ZM141.826 14.9941V15.623H142.826V14.9941H141.826ZM141.828 15.577C141.781 16.0878 141.689 16.5364 141.558 16.9263L142.506 17.2455C142.666 16.7696 142.771 16.2429 142.824 15.6691L141.828 15.577ZM141.557 16.9308C141.431 17.3153 141.264 17.6284 141.062 17.8796L141.84 18.5071C142.13 18.1476 142.35 17.7225 142.507 17.241L141.557 16.9308ZM141.059 17.8832C140.865 18.1279 140.631 18.3135 140.35 18.4445L140.774 19.3504C141.196 19.1533 141.553 18.8695 141.843 18.5036L141.059 17.8832ZM140.355 18.4423C140.082 18.5665 139.745 18.6367 139.332 18.6367V19.6367C139.857 19.6367 140.341 19.5474 140.769 19.3526L140.355 18.4423ZM139.332 18.6367C138.973 18.6367 138.657 18.5601 138.373 18.4127L137.912 19.3002C138.348 19.5265 138.824 19.6367 139.332 19.6367V18.6367ZM138.375 18.4139C138.087 18.2625 137.834 18.0489 137.615 17.7652L136.823 18.3754C137.124 18.7662 137.487 19.0767 137.91 19.299L138.375 18.4139ZM137.618 17.7686C137.402 17.4831 137.229 17.1402 137.102 16.7328L136.147 17.0289C136.303 17.533 136.526 17.983 136.821 18.372L137.618 17.7686ZM137.104 16.7385C136.982 16.3296 136.92 15.879 136.92 15.3838H135.92C135.92 15.9641 135.993 16.5116 136.145 17.0232L137.104 16.7385ZM137.191 15.2402V15.3838H138.191V15.2402H137.191ZM137.191 15.3838C137.191 15.7858 137.231 16.1693 137.313 16.5328L138.288 16.3129C138.224 16.0292 138.191 15.72 138.191 15.3838H137.191ZM137.314 16.5393C137.403 16.9108 137.542 17.2496 137.736 17.5493L138.575 17.0054C138.451 16.8129 138.353 16.5821 138.287 16.3064L137.314 16.5393ZM137.736 17.5493C137.938 17.8598 138.198 18.1098 138.515 18.292L139.013 17.4248C138.838 17.3244 138.693 17.1871 138.575 17.0054L137.736 17.5493ZM138.521 18.2955C138.856 18.4814 139.237 18.5635 139.646 18.5635V17.5635C139.371 17.5635 139.165 17.5088 139.007 17.4213L138.521 18.2955ZM139.646 18.5635C140.134 18.5635 140.582 18.4599 140.954 18.214L140.403 17.3798C140.237 17.4893 139.996 17.5635 139.646 17.5635V18.5635ZM140.951 18.2161C141.294 17.9932 141.568 17.698 141.77 17.3379L140.899 16.8476C140.773 17.0709 140.61 17.2451 140.406 17.3777L140.951 18.2161ZM141.77 17.3379C141.956 17.0076 142.099 16.6515 142.201 16.2714L141.234 16.0137C141.153 16.3173 141.041 16.5946 140.899 16.8476L141.77 17.3379ZM142.217 16.1426V14.4951H141.217V16.1426H142.217ZM142.206 14.3885C142.144 14.1041 142.053 13.8293 141.934 13.565L141.022 13.9761C141.113 14.1765 141.182 14.3849 141.229 14.6017L142.206 14.3885ZM141.939 13.5757C141.818 13.2901 141.656 13.0327 141.453 12.8071L140.71 13.4761C140.835 13.6151 140.938 13.777 141.018 13.9653L141.939 13.5757ZM141.462 12.817C141.253 12.5718 140.995 12.381 140.696 12.2433L140.277 13.1512C140.453 13.2323 140.592 13.3377 140.701 13.4662L141.462 12.817ZM140.7 12.2449C140.387 12.0975 140.035 12.0332 139.66 12.0332V13.0332C139.923 13.0332 140.122 13.0783 140.274 13.1497L140.7 12.2449ZM139.66 12.0332C139.242 12.0332 138.853 12.1216 138.513 12.3198L139.016 13.1841C139.176 13.0906 139.385 13.0332 139.66 13.0332V12.0332ZM138.515 12.3183C138.196 12.5018 137.935 12.7558 137.734 13.0714L138.578 13.6083C138.696 13.4226 138.841 13.2847 139.013 13.1856L138.515 12.3183ZM137.736 13.0679C137.541 13.3687 137.403 13.7106 137.314 14.0863L138.287 14.3161C138.353 14.0355 138.451 13.8032 138.575 13.6118L137.736 13.0679ZM137.313 14.0913C137.231 14.4547 137.191 14.8382 137.191 15.2402H138.191C138.191 14.904 138.224 14.5948 138.288 14.3111L137.313 14.0913ZM150.49 11.6035H150.99V11.1035H150.49V11.6035ZM150.49 19V19.5H150.99V19H150.49ZM149.219 19H148.719V19.5H149.219V19ZM149.219 11.6035V11.1035H148.719V11.6035H149.219ZM149.308 9.12207L148.937 8.78687L148.931 8.79368L149.308 9.12207ZM150.422 9.12207L150.051 9.45726L150.057 9.46365L150.422 9.12207ZM150.422 10.1475L150.057 9.80588L150.056 9.8063L150.422 10.1475ZM149.308 10.1475L148.931 10.4759L148.936 10.4823L148.942 10.4886L149.308 10.1475ZM149.99 11.6035V19H150.99V11.6035H149.99ZM150.49 18.5H149.219V19.5H150.49V18.5ZM149.719 19V11.6035H148.719V19H149.719ZM149.219 12.1035H150.49V11.1035H149.219V12.1035ZM149.623 9.6416C149.623 9.54493 149.649 9.49183 149.685 9.45046L148.931 8.79368C148.721 9.03486 148.623 9.32812 148.623 9.6416H149.623ZM149.679 9.45721C149.686 9.4496 149.72 9.41016 149.868 9.41016V8.41016C149.525 8.41016 149.185 8.51199 148.937 8.78693L149.679 9.45721ZM149.868 9.41016C150.009 9.41016 150.042 9.44766 150.051 9.45721L150.793 8.78693C150.546 8.51392 150.211 8.41016 149.868 8.41016V9.41016ZM150.057 9.46365C150.097 9.50636 150.12 9.555 150.12 9.6416H151.12C151.12 9.31805 151.012 9.02034 150.787 8.78049L150.057 9.46365ZM150.12 9.6416C150.12 9.71255 150.101 9.75856 150.057 9.80588L150.787 10.489C151.007 10.2538 151.12 9.96258 151.12 9.6416H150.12ZM150.056 9.8063C150.049 9.81423 150.014 9.85254 149.868 9.85254V10.8525C150.206 10.8525 150.54 10.7541 150.788 10.4886L150.056 9.8063ZM149.868 9.85254C149.715 9.85254 149.679 9.8124 149.673 9.8063L148.942 10.4886C149.192 10.756 149.53 10.8525 149.868 10.8525V9.85254ZM149.685 9.81907C149.645 9.77329 149.623 9.72291 149.623 9.6416H148.623C148.623 9.95222 148.725 10.2391 148.931 10.4759L149.685 9.81907ZM161.184 13.1689L160.741 13.4L160.747 13.411L161.184 13.1689ZM158.963 12.6494L158.756 12.1939L158.753 12.1954L158.963 12.6494ZM158.402 13.0801L158.006 12.7752L158.001 12.7817L158.402 13.0801ZM158.204 13.6543V14.1543H158.704V13.6543H158.204ZM156.939 13.6543H156.439V14.1543H156.939V13.6543ZM157.732 12.1641L158.049 12.5504L158.05 12.5498L157.732 12.1641ZM158.662 11.6582L158.824 12.1313L158.827 12.1301L158.662 11.6582ZM161.3 11.7402L161.097 12.1971L161.099 12.198L161.3 11.7402ZM162.271 12.5674L161.848 12.8338L161.852 12.8399L162.271 12.5674ZM162.688 18.1729L162.193 18.2458L162.195 18.2537L162.688 18.1729ZM162.886 18.8906H163.386V18.7873L163.345 18.6924L162.886 18.8906ZM162.886 19V19.5H163.386V19H162.886ZM161.567 19L161.109 19.2004L161.24 19.5H161.567V19ZM161.417 18.4189L160.922 18.4922L160.922 18.4936L161.417 18.4189ZM161.581 14.5156L162.081 14.5079L162.073 14.0156H161.581V14.5156ZM161.594 15.4043V15.9043H162.102L162.094 15.3966L161.594 15.4043ZM159.352 15.4932L159.447 15.9841L159.455 15.9825L159.352 15.4932ZM158.204 16.1768L158.634 16.4323L158.637 16.4273L158.204 16.1768ZM158.682 17.8652L158.443 18.3047L158.455 18.3105L158.682 17.8652ZM161.198 17.1816L160.798 16.8816L160.794 16.8866L161.198 17.1816ZM161.485 16.4912L161.859 16.1593L161.06 15.2587L160.986 16.4607L161.485 16.4912ZM162.025 17.0996L162.518 17.1818L162.558 16.9463L162.399 16.7677L162.025 17.0996ZM161.198 18.4053L161.533 18.7766L161.533 18.7762L161.198 18.4053ZM160.364 18.9316L160.561 19.3912L160.564 19.3899L160.364 18.9316ZM157.965 18.8428L157.732 19.2856L157.735 19.2867L157.965 18.8428ZM157.09 18.0566L156.664 18.319L156.668 18.3258L157.09 18.0566ZM157.014 15.8965L157.459 16.1255L157.46 16.1227L157.014 15.8965ZM157.684 15.1377L157.968 15.5497L157.972 15.5467L157.684 15.1377ZM161.862 17.7354V13.9277H160.862V17.7354H161.862ZM161.862 13.9277C161.862 13.5676 161.788 13.2282 161.622 12.9269L160.747 13.411C160.817 13.5381 160.862 13.7045 160.862 13.9277H161.862ZM161.628 12.938C161.463 12.6215 161.211 12.3805 160.892 12.2176L160.438 13.1085C160.583 13.1827 160.678 13.2789 160.741 13.3999L161.628 12.938ZM160.892 12.2176C160.571 12.0539 160.201 11.9854 159.803 11.9854V12.9854C160.09 12.9854 160.294 13.0353 160.438 13.1085L160.892 12.2176ZM159.803 11.9854C159.427 11.9854 159.074 12.0499 158.756 12.1939L159.169 13.1049C159.334 13.0302 159.541 12.9854 159.803 12.9854V11.9854ZM158.753 12.1954C158.455 12.3331 158.199 12.5236 158.006 12.7752L158.798 13.3849C158.878 13.281 158.996 13.1845 159.172 13.1034L158.753 12.1954ZM158.001 12.7817C157.81 13.0384 157.704 13.333 157.704 13.6543H158.704C158.704 13.5655 158.73 13.4772 158.803 13.3784L158.001 12.7817ZM158.204 13.1543H156.939V14.1543H158.204V13.1543ZM157.439 13.6543C157.439 13.4798 157.484 13.2971 157.587 13.101L156.702 12.6353C156.531 12.9588 156.439 13.3002 156.439 13.6543H157.439ZM157.587 13.101C157.689 12.9072 157.839 12.723 158.049 12.5504L157.415 11.7777C157.114 12.0244 156.873 12.3096 156.702 12.6353L157.587 13.101ZM158.05 12.5498C158.258 12.3786 158.513 12.2374 158.823 12.1313L158.5 11.1851C158.09 11.3251 157.726 11.5212 157.414 11.7783L158.05 12.5498ZM158.827 12.1301C159.131 12.0238 159.48 11.9668 159.879 11.9668V10.9668C159.384 10.9668 158.922 11.0374 158.497 11.1863L158.827 12.1301ZM159.879 11.9668C160.36 11.9668 160.763 12.0483 161.097 12.1971L161.504 11.2833C161.018 11.0676 160.473 10.9668 159.879 10.9668V11.9668ZM161.099 12.198C161.426 12.3417 161.671 12.5525 161.848 12.8338L162.694 12.301C162.407 11.8439 162.004 11.5033 161.502 11.2825L161.099 12.198ZM161.852 12.8399C162.024 13.1041 162.127 13.4609 162.127 13.9414H163.127C163.127 13.319 162.993 12.7598 162.69 12.2949L161.852 12.8399ZM162.127 13.9414V17.3867H163.127V13.9414H162.127ZM162.127 17.3867C162.127 17.6604 162.149 17.947 162.194 18.2458L163.183 18.0999C163.145 17.8427 163.127 17.6052 163.127 17.3867H162.127ZM162.195 18.2537C162.245 18.5611 162.321 18.8418 162.427 19.0888L163.345 18.6924C163.279 18.5384 163.222 18.3406 163.182 18.092L162.195 18.2537ZM162.386 18.8906V19H163.386V18.8906H162.386ZM162.886 18.5H161.567V19.5H162.886V18.5ZM162.025 18.7996C161.986 18.7093 161.944 18.563 161.911 18.3443L160.922 18.4936C160.962 18.758 161.021 18.9991 161.109 19.2004L162.025 18.7996ZM161.911 18.3457C161.878 18.1195 161.862 17.9164 161.862 17.7354H160.862C160.862 17.9735 160.883 18.2262 160.922 18.4922L161.911 18.3457ZM161.081 14.5233L161.094 15.412L162.094 15.3966L162.081 14.5079L161.081 14.5233ZM161.594 14.9043H160.316V15.9043H161.594V14.9043ZM160.316 14.9043C159.93 14.9043 159.573 14.936 159.25 15.0038L159.455 15.9825C159.697 15.9318 159.982 15.9043 160.316 15.9043V14.9043ZM159.257 15.0023C158.934 15.0649 158.639 15.1658 158.386 15.3164L158.897 16.1757C159.027 16.0986 159.206 16.0308 159.447 15.9841L159.257 15.0023ZM158.386 15.3164C158.129 15.469 157.919 15.6712 157.771 15.9262L158.637 16.4273C158.689 16.336 158.77 16.2511 158.897 16.1757L158.386 15.3164ZM157.774 15.9212C157.621 16.1789 157.553 16.4684 157.553 16.7715H158.553C158.553 16.6188 158.586 16.5119 158.634 16.4323L157.774 15.9212ZM157.553 16.7715C157.553 17.0822 157.624 17.3776 157.772 17.6474L158.649 17.1671C158.587 17.0541 158.553 16.9256 158.553 16.7715H157.553ZM157.772 17.6474C157.927 17.9308 158.158 18.1492 158.444 18.3045L158.921 17.4259C158.788 17.3534 158.704 17.2665 158.649 17.1671L157.772 17.6474ZM158.455 18.3105C158.757 18.4647 159.102 18.5293 159.468 18.5293V17.5293C159.216 17.5293 159.036 17.4845 158.91 17.4199L158.455 18.3105ZM159.468 18.5293C159.928 18.5293 160.356 18.4313 160.736 18.2206L160.252 17.3458C160.04 17.4632 159.783 17.5293 159.468 17.5293V18.5293ZM160.736 18.2206C161.086 18.0267 161.379 17.7806 161.602 17.4766L160.794 16.8866C160.67 17.0566 160.494 17.2115 160.252 17.3458L160.736 18.2206ZM161.598 17.4816C161.816 17.1913 161.963 16.8696 161.984 16.5218L160.986 16.4607C160.98 16.5594 160.936 16.698 160.798 16.8816L161.598 17.4816ZM161.111 16.8231L161.651 17.4315L162.399 16.7677L161.859 16.1593L161.111 16.8231ZM161.532 17.0174C161.514 17.1262 161.459 17.2774 161.338 17.4756L162.193 17.9951C162.355 17.7285 162.473 17.4558 162.518 17.1818L161.532 17.0174ZM161.338 17.4756C161.226 17.6603 161.07 17.8471 160.863 18.0343L161.533 18.7762C161.8 18.5351 162.022 18.2753 162.193 17.9951L161.338 17.4756ZM160.863 18.034C160.675 18.2033 160.444 18.351 160.164 18.4734L160.564 19.3899C160.931 19.2298 161.256 19.0265 161.533 18.7766L160.863 18.034ZM160.167 18.4721C159.919 18.5783 159.628 18.6367 159.284 18.6367V19.6367C159.742 19.6367 160.171 19.5584 160.561 19.3912L160.167 18.4721ZM159.284 18.6367C158.848 18.6367 158.49 18.552 158.195 18.3988L157.735 19.2867C158.195 19.5255 158.717 19.6367 159.284 19.6367V18.6367ZM158.197 18.4C157.893 18.2409 157.67 18.0361 157.511 17.7874L156.668 18.3258C156.929 18.7334 157.288 19.0527 157.732 19.2856L158.197 18.4ZM157.515 17.7943C157.361 17.5445 157.282 17.2647 157.282 16.9424H156.282C156.282 17.4404 156.408 17.9035 156.664 18.319L157.515 17.7943ZM157.282 16.9424C157.282 16.6119 157.346 16.3442 157.459 16.1255L156.57 15.6675C156.373 16.0503 156.282 16.4799 156.282 16.9424H157.282ZM157.46 16.1227C157.576 15.8945 157.742 15.7045 157.968 15.5497L157.401 14.7257C157.043 14.9719 156.763 15.2878 156.568 15.6702L157.46 16.1227ZM157.972 15.5467C158.206 15.3823 158.499 15.2498 158.861 15.1573L158.613 14.1884C158.155 14.3055 157.746 14.4829 157.397 14.7287L157.972 15.5467ZM158.861 15.1573C159.224 15.0646 159.639 15.0156 160.111 15.0156V14.0156C159.571 14.0156 159.071 14.0715 158.613 14.1884L158.861 15.1573ZM160.111 15.0156H161.581V14.0156H160.111V15.0156Z" fill="#FE40B2"/>
<path d="M18.5234 34.2402V37H7.41406V34.2402H18.5234ZM7.99414 11.4062V37H4.75977V11.4062H7.99414ZM17.0293 22.4102V25.1699H7.41406V22.4102H17.0293ZM18.3477 11.4062V14.1836H7.41406V11.4062H18.3477ZM26.0293 11.4062V37H22.7949V11.4062H26.0293ZM39.3535 11.4062V37H36.1543V11.4062H39.3535ZM46.0859 11.4062V14.1836H29.4395V11.4062H46.0859Z" fill="#FE40B2"/>
</svg>
